<svg xmlns="http://www.w3.org/2000/svg" viewBox="0 0 512 512">
<style>
  .a{
    fill:#FFF;
  }
  .b{
    fill:#A2001D;
  }
</style>
  <path d="M427.101 217.57c9.305-12.965 14.792-28.855 14.792-46.034 0-31.624-18.565-58.903-45.387-71.563 0.109-0.479 0.218-0.952 0.324-1.44 -1.779-43.24-37.513-77.871-81.182-77.871 -9.22 0-18.273 1.589-26.8 4.58 -2.21-2.21-4.542-4.303-6.99-6.266C266.601 6.739 247.414 0 227.831 0c-34.798 0-64.86 20.675-78.543 50.386 -39.431 5.553-69.863 39.516-69.863 80.456 0 6.59 0.83 13.117 2.4 19.441 -7.253 7.581-11.718 17.853-11.718 29.173 0 16.819 9.841 31.329 24.072 38.116h332.921V217.57z" fill="#FFF0B4"/>
    <circle cx="171.923" cy="133.247" r="17.38" class="a"/>
    <circle cx="253.03" cy="168.007" r="17.38" class="a"/>
    <circle cx="310.963" cy="110.073" r="17.38" class="a"/>
  <polygon points="88.369 214.353 127.725 512 389.925 512 429.282 214.353 " fill="#D80027"/>
  <rect x="204.366" y="233.402" width="110.456" height="264.176" fill="#FF9811"/>
    <polygon points="235.14 492.947 214.74 238.966 180.092 241.75 200.268 492.947 " class="a"/>
    <polygon points="316.999 492.947 337.175 241.75 302.526 238.966 282.125 492.947 " class="a"/>
    <polygon points="92.88 248.468 424.771 248.468 429.282 214.353 88.369 214.353 " class="b"/>
    <polygon points="123.129 477.24 127.725 512 389.925 512 394.522 477.24 " class="b"/>
</svg>